<?xml version="1.0" encoding="UTF-8" standalone="no"?>
<svg xmlns="http://www.w3.org/2000/svg" width="640" height="1000">
  <g fill="#848484">
    <path d="M59.00427 272.40779 59.004 530.835h104.764V272.40779c0-86.48025 70.36161-156.8333 156.82974-156.8333 86.46813 0 156.82523 70.35304 156.82523 156.8333V530.835l104.7642-.00025V272.40779c0-144.2401-117.35336-261.59346-261.58943-261.59346-144.23204 0-261.59374 117.35336-261.59374 261.59346"/>
    <path d="M320 372.25c-170.07674 0-308.46875 138.37581-308.46875 308.46875 0 170.0686 138.39201 308.46875 308.46875 308.46875 170.08084 0 308.46875-138.40015 308.46875-308.46875C628.46875 510.6258 490.08086 372.25 320 372.25zm1 222.96875c47.73538 0 86.4375 38.686 86.4375 86.4375 0 47.7233-38.70212 86.40625-86.4375 86.40625-47.73135 0-86.40625-38.68295-86.40625-86.40625 0-47.7515 38.6749-86.4375 86.40625-86.4375z"/>
  </g>
</svg>